<svg xmlns="http://www.w3.org/2000/svg" viewBox="0 0 1200 400" role="img" aria-label="OwnitApps logo"><path fill="#C9AB45" fill-rule="evenodd" d="M150 65C73.785 65 12 126.785 12 203s61.785 138 138 138 138-61.785 138-138S226.215 65 150 65Zm0 52c-47.496 0-86 38.504-86 86s38.504 86 86 86 86-38.504 86-86-38.504-86-86-86Z"/><path fill="#C9AB45" d="M150 181c16.016 0 29 12.984 29 29 0 9.152-4.239 17.314-10.86 22.63L179 275h-58l10.86-42.37C125.239 227.314 121 219.152 121 210c0-16.016 12.984-29 29-29Z"/><text x="350" y="245" font-family="Inter, Manrope, Arial, sans-serif" font-size="125" font-weight="800" letter-spacing="-6"><tspan fill="#202124">Ownit</tspan><tspan fill="#C9AB45">Apps</tspan></text></svg>